<svg width="395" height="363" viewBox="0 0 395 363" fill="none" xmlns="http://www.w3.org/2000/svg">
<g style="mix-blend-mode:overlay" opacity="0.08">
<path d="M116.269 54.7313C121.849 52.9168 127.922 53.3935 133.151 56.0563C138.38 58.7192 142.337 63.3502 144.151 68.9306L180.191 179.773L258.159 93.1413C260.096 90.9596 262.446 89.1827 265.073 87.9128C267.7 86.643 270.553 85.9054 273.466 85.7423C276.379 85.5793 279.296 85.9942 282.048 86.963C284.801 87.9318 287.334 89.4355 289.503 91.3874C291.672 93.3394 293.433 95.701 294.685 98.3364C295.938 100.972 296.656 103.829 296.8 106.743C296.944 109.658 296.51 112.571 295.523 115.317C294.536 118.063 293.015 120.587 291.049 122.742L213.081 209.374L327.089 233.585C329.947 234.172 332.661 235.319 335.074 236.959C337.488 238.599 339.553 240.7 341.15 243.142C342.748 245.583 343.847 248.317 344.384 251.185C344.921 254.053 344.886 256.999 344.28 259.853C343.673 262.707 342.509 265.413 340.853 267.816C339.196 270.218 337.081 272.269 334.629 273.85C332.177 275.432 329.437 276.513 326.565 277.031C323.694 277.549 320.748 277.494 317.898 276.869L203.89 252.658L239.93 363.5C241.745 369.081 241.268 375.153 238.605 380.382C235.942 385.611 231.312 389.568 225.731 391.382C220.151 393.197 214.078 392.72 208.849 390.057C203.62 387.394 199.664 382.763 197.849 377.183L161.809 266.341L83.8412 352.972C81.9037 355.154 79.5537 356.931 76.9267 358.201C74.2997 359.471 71.4474 360.208 68.5341 360.371C65.6208 360.534 62.7041 360.119 59.9517 359.151C57.1994 358.182 54.6659 356.678 52.4971 354.726C50.3283 352.774 48.567 350.413 47.3146 347.777C46.0623 345.142 45.3435 342.285 45.1998 339.37C45.0562 336.456 45.4903 333.542 46.4774 330.796C47.4645 328.051 48.9849 325.527 50.9512 323.371L128.919 236.74L14.9107 212.529C9.20385 211.277 4.22363 207.819 1.05689 202.91C-2.10985 198 -3.20603 192.037 -1.99243 186.322C-0.778825 180.607 2.64603 175.603 7.53474 172.404C12.4235 169.205 18.3792 168.069 24.1021 169.245L138.11 193.456L102.07 82.6133C100.255 77.033 100.732 70.9604 103.395 65.7315C106.058 60.5026 110.689 56.5457 116.269 54.7313V54.7313Z" fill="white"/>
</g>
</svg>
