<svg width="20" height="20" viewBox="0 0 20 20" fill="none" xmlns="http://www.w3.org/2000/svg">
<path d="M2.5 7.50024C2.49997 6.26175 2.80663 5.04253 3.3926 3.95144C3.97858 2.86036 4.82564 1.93136 5.85814 1.24741C6.89064 0.563456 8.07644 0.145837 9.30967 0.0318405C10.5429 -0.0821558 11.7852 0.111019 12.9255 0.594116C14.0659 1.07721 15.0689 1.8352 15.845 2.80038C16.621 3.76557 17.146 4.90791 17.373 6.12542C17.5999 7.34293 17.5219 8.5977 17.1458 9.77769C16.7697 10.9577 16.1072 12.0262 15.2175 12.8877C14.9638 13.1327 14.7688 13.3877 14.6513 13.6615L13.6988 15.8727C13.6504 15.9848 13.5703 16.0803 13.4684 16.1474C13.3664 16.2144 13.2471 16.2502 13.125 16.2502C13.2908 16.2502 13.4497 16.3161 13.5669 16.4333C13.6842 16.5505 13.75 16.7095 13.75 16.8752C13.75 17.041 13.6842 17.2 13.5669 17.3172C13.4497 17.4344 13.2908 17.5002 13.125 17.5002C13.2908 17.5002 13.4497 17.5661 13.5669 17.6833C13.6842 17.8005 13.75 17.9595 13.75 18.1252C13.75 18.291 13.6842 18.45 13.5669 18.5672C13.4497 18.6844 13.2908 18.7502 13.125 18.7502L12.845 19.309C12.7413 19.5166 12.5818 19.6912 12.3844 19.8133C12.187 19.9354 11.9596 20.0001 11.7275 20.0002H8.2725C8.04043 20.0001 7.81297 19.9354 7.6156 19.8133C7.41823 19.6912 7.25874 19.5166 7.155 19.309L6.875 18.7502C6.70924 18.7502 6.55027 18.6844 6.43306 18.5672C6.31585 18.45 6.25 18.291 6.25 18.1252C6.25 17.9595 6.31585 17.8005 6.43306 17.6833C6.55027 17.5661 6.70924 17.5002 6.875 17.5002C6.70924 17.5002 6.55027 17.4344 6.43306 17.3172C6.31585 17.2 6.25 17.041 6.25 16.8752C6.25 16.7095 6.31585 16.5505 6.43306 16.4333C6.55027 16.3161 6.70924 16.2502 6.875 16.2502C6.75274 16.2505 6.63311 16.2148 6.5309 16.1477C6.4287 16.0806 6.34842 15.985 6.3 15.8727L5.34875 13.6602C5.21255 13.3681 5.02014 13.1056 4.7825 12.8877C4.05953 12.1892 3.48479 11.3521 3.09262 10.4264C2.70045 9.50076 2.4989 8.50555 2.5 7.50024ZM10 1.25024C8.75521 1.25003 7.53871 1.62153 6.5064 2.31713C5.47409 3.01273 4.67301 4.00074 4.20583 5.15454C3.73864 6.30834 3.62663 7.57536 3.88415 8.79323C4.14167 10.0111 4.75699 11.1243 5.65125 11.9902C5.98 12.3077 6.29375 12.6952 6.49625 13.1665L7.2875 15.0002H12.715L13.505 13.1665C13.7075 12.6952 14.0213 12.3077 14.35 11.9902C15.2443 11.1242 15.8597 10.0109 16.1172 8.79292C16.3747 7.57494 16.2625 6.30781 15.7952 5.15396C15.3279 4.00011 14.5266 3.01211 13.4941 2.3166C12.4616 1.6211 11.2449 1.24978 10 1.25024Z" fill="#DFB400"/>
</svg>
