<svg width="18" height="18" viewBox="0 0 18 18" fill="none" xmlns="http://www.w3.org/2000/svg">
<path d="M18 9C18 11.3869 17.0518 13.6761 15.364 15.364C13.6761 17.0518 11.3869 18 9 18C6.61305 18 4.32387 17.0518 2.63604 15.364C0.948212 13.6761 0 11.3869 0 9C0 6.61305 0.948212 4.32387 2.63604 2.63604C4.32387 0.948212 6.61305 0 9 0C11.3869 0 13.6761 0.948212 15.364 2.63604C17.0518 4.32387 18 6.61305 18 9V9ZM9.32287 6.64425C8.44762 7.00875 6.69713 7.7625 4.07363 8.9055C3.64838 9.07425 3.4245 9.24075 3.40425 9.40275C3.3705 9.67612 3.71363 9.78413 4.1805 9.9315L4.37738 9.99338C4.83638 10.143 5.45512 10.3174 5.77575 10.3241C6.06825 10.3309 6.39337 10.2116 6.75225 9.96413C9.20362 8.30925 10.4693 7.47337 10.548 7.45537C10.6043 7.44187 10.683 7.42613 10.7347 7.47338C10.7876 7.5195 10.782 7.60837 10.7764 7.632C10.7426 7.77712 9.396 9.02812 8.69962 9.67612C8.4825 9.87862 8.32838 10.0215 8.29688 10.0541C8.22751 10.125 8.157 10.1948 8.08537 10.2634C7.65787 10.6751 7.33838 10.9834 8.10225 11.4874C8.47013 11.7304 8.76488 11.9295 9.0585 12.1297C9.378 12.348 9.6975 12.5651 10.1115 12.8374C10.2161 12.9049 10.3174 12.978 10.4153 13.0477C10.7876 13.3132 11.124 13.5518 11.5369 13.5135C11.7776 13.491 12.0263 13.266 12.1523 12.591C12.4504 10.9969 13.0365 7.54425 13.1715 6.12112C13.1797 6.00282 13.1748 5.88397 13.1569 5.76675C13.1463 5.67216 13.1005 5.58502 13.0286 5.52262C12.9263 5.45196 12.8042 5.41535 12.6799 5.418C12.3424 5.42362 11.8215 5.60475 9.32287 6.64425V6.64425Z" fill="white"/>
</svg>
