<svg width="32" height="32" viewBox="0 0 32 32" fill="none" xmlns="http://www.w3.org/2000/svg">
<path d="M16.0002 0C16.5307 0 17.0394 0.210714 17.4144 0.585786C17.7895 0.960859 18.0002 1.46957 18.0002 2V12.536L27.1242 7.268C27.3518 7.1346 27.6035 7.04753 27.8648 7.0118C28.1261 6.97607 28.3919 6.99238 28.6469 7.0598C28.9019 7.12722 29.1411 7.24441 29.3506 7.40463C29.5601 7.56485 29.7359 7.76492 29.8678 7.99334C29.9996 8.22177 30.085 8.47402 30.119 8.73558C30.153 8.99714 30.135 9.26284 30.0659 9.51738C29.9967 9.77193 29.878 10.0103 29.7164 10.2187C29.5548 10.4272 29.3535 10.6016 29.1242 10.732L20.0002 16L29.1242 21.268C29.3535 21.3984 29.5548 21.5728 29.7164 21.7813C29.878 21.9897 29.9967 22.2281 30.0659 22.4826C30.135 22.7372 30.153 23.0029 30.119 23.2644C30.085 23.526 29.9996 23.7782 29.8678 24.0067C29.7359 24.2351 29.5601 24.4352 29.3506 24.5954C29.1411 24.7556 28.9019 24.8728 28.6469 24.9402C28.3919 25.0076 28.1261 25.0239 27.8648 24.9882C27.6035 24.9525 27.3518 24.8654 27.1242 24.732L18.0002 19.464V30C18.0002 30.5304 17.7895 31.0391 17.4144 31.4142C17.0394 31.7893 16.5307 32 16.0002 32C15.4698 32 14.9611 31.7893 14.586 31.4142C14.2109 31.0391 14.0002 30.5304 14.0002 30V19.464L4.87624 24.732C4.64869 24.8654 4.39701 24.9525 4.13568 24.9882C3.87436 25.0239 3.60854 25.0076 3.35354 24.9402C3.09854 24.8728 2.8594 24.7556 2.64988 24.5954C2.44035 24.4352 2.26459 24.2351 2.13271 24.0067C2.00083 23.7782 1.91543 23.526 1.88143 23.2644C1.84743 23.0029 1.86551 22.7372 1.93462 22.4826C2.00372 22.2281 2.1225 21.9897 2.2841 21.7813C2.4457 21.5728 2.64694 21.3984 2.87624 21.268L12.0002 16L2.87624 10.732C2.42062 10.4649 2.08915 10.0284 1.95416 9.51784C1.81917 9.00725 1.89161 8.46399 2.15569 8.00661C2.41976 7.54924 2.85402 7.21488 3.36371 7.0765C3.87339 6.93813 4.41712 7.00697 4.87624 7.268L14.0002 12.536V2C14.0002 1.46957 14.2109 0.960859 14.586 0.585786C14.9611 0.210714 15.4698 0 16.0002 0V0Z" fill="white"/>
</svg>
