<svg width="32" height="32" viewBox="0 0 32 32" fill="none" xmlns="http://www.w3.org/2000/svg">
<path fill-rule="evenodd" clip-rule="evenodd" d="M15.292 5.29183C15.3849 5.19871 15.4953 5.12482 15.6168 5.07441C15.7383 5.024 15.8685 4.99805 16 4.99805C16.1316 4.99805 16.2618 5.024 16.3833 5.07441C16.5048 5.12482 16.6152 5.19871 16.708 5.29183L28.708 17.2918C28.8958 17.4796 29.0013 17.7343 29.0013 17.9998C29.0013 18.2654 28.8958 18.5201 28.708 18.7078C28.5203 18.8956 28.2656 19.0011 28 19.0011C27.7345 19.0011 27.4798 18.8956 27.292 18.7078L16 7.41383L4.70804 18.7078C4.52027 18.8956 4.26559 19.0011 4.00004 19.0011C3.73449 19.0011 3.47982 18.8956 3.29204 18.7078C3.10427 18.5201 2.99878 18.2654 2.99878 17.9998C2.99878 17.7343 3.10427 17.4796 3.29204 17.2918L15.292 5.29183Z" fill="white"/>
<path fill-rule="evenodd" clip-rule="evenodd" d="M15.292 13.2918C15.3849 13.1987 15.4953 13.1248 15.6168 13.0744C15.7383 13.024 15.8685 12.998 16 12.998C16.1316 12.998 16.2618 13.024 16.3833 13.0744C16.5048 13.1248 16.6152 13.1987 16.708 13.2918L28.708 25.2918C28.8958 25.4796 29.0013 25.7343 29.0013 25.9998C29.0013 26.2654 28.8958 26.5201 28.708 26.7078C28.5203 26.8956 28.2656 27.0011 28 27.0011C27.7345 27.0011 27.4798 26.8956 27.292 26.7078L16 15.4138L4.70804 26.7078C4.52027 26.8956 4.26559 27.0011 4.00004 27.0011C3.73449 27.0011 3.47982 26.8956 3.29204 26.7078C3.10427 26.5201 2.99878 26.2654 2.99878 25.9998C2.99878 25.7343 3.10427 25.4796 3.29204 25.2918L15.292 13.2918Z" fill="white"/>
</svg>
