<svg width="32" height="32" viewBox="0 0 32 32" fill="none" xmlns="http://www.w3.org/2000/svg">
<path d="M20 6C20.5304 6 21.0391 6.21071 21.4142 6.58579C21.7893 6.96086 22 7.46957 22 8V24C22 24.5304 21.7893 25.0391 21.4142 25.4142C21.0391 25.7893 20.5304 26 20 26H12C11.4696 26 10.9609 25.7893 10.5858 25.4142C10.2107 25.0391 10 24.5304 10 24V8C10 7.46957 10.2107 6.96086 10.5858 6.58579C10.9609 6.21071 11.4696 6 12 6H20ZM12 4C10.9391 4 9.92172 4.42143 9.17157 5.17157C8.42143 5.92172 8 6.93913 8 8V24C8 25.0609 8.42143 26.0783 9.17157 26.8284C9.92172 27.5786 10.9391 28 12 28H20C21.0609 28 22.0783 27.5786 22.8284 26.8284C23.5786 26.0783 24 25.0609 24 24V8C24 6.93913 23.5786 5.92172 22.8284 5.17157C22.0783 4.42143 21.0609 4 20 4H12Z" fill="white"/>
<path d="M16 23.9998C16.5305 23.9998 17.0392 23.7891 17.4142 23.414C17.7893 23.039 18 22.5303 18 21.9998C18 21.4694 17.7893 20.9607 17.4142 20.5856C17.0392 20.2106 16.5305 19.9998 16 19.9998C15.4696 19.9998 14.9609 20.2106 14.5858 20.5856C14.2107 20.9607 14 21.4694 14 21.9998C14 22.5303 14.2107 23.039 14.5858 23.414C14.9609 23.7891 15.4696 23.9998 16 23.9998ZM3.19802 8.11584C3.31413 8.17727 3.417 8.26098 3.50075 8.36218C3.5845 8.46338 3.64749 8.5801 3.68612 8.70565C3.72475 8.8312 3.73827 8.96314 3.7259 9.09392C3.71352 9.2247 3.67551 9.35175 3.61402 9.46784C2.55051 11.4806 1.99635 13.7233 2.00002 15.9998C2.00002 18.3598 2.58402 20.5838 3.61402 22.5318C3.73814 22.7663 3.76404 23.0404 3.68602 23.294C3.60801 23.5475 3.43247 23.7597 3.19802 23.8838C2.96357 24.008 2.68941 24.0339 2.43586 23.9558C2.18231 23.8778 1.97014 23.7023 1.84602 23.4678C0.630064 21.1666 -0.0037351 18.6026 1.65588e-05 15.9998C1.65588e-05 13.3058 0.668017 10.7618 1.84602 8.53184C1.90745 8.41572 1.99116 8.31286 2.09236 8.2291C2.19357 8.14535 2.31028 8.08236 2.43583 8.04373C2.56138 8.0051 2.69332 7.99158 2.8241 8.00396C2.95488 8.01633 3.08193 8.05435 3.19802 8.11584ZM28.802 8.11584C28.9181 8.05435 29.0452 8.01633 29.1759 8.00396C29.3067 7.99158 29.4387 8.0051 29.5642 8.04373C29.6898 8.08236 29.8065 8.14535 29.9077 8.2291C30.0089 8.31286 30.0926 8.41572 30.154 8.53184C31.37 10.833 32.0038 13.3971 32 15.9998C32.0038 18.6026 31.37 21.1666 30.154 23.4678C30.0299 23.7023 29.8177 23.8778 29.5642 23.9558C29.3106 24.0339 29.0365 24.008 28.802 23.8838C28.5676 23.7597 28.392 23.5475 28.314 23.294C28.236 23.0404 28.2619 22.7663 28.386 22.5318C29.4495 20.519 30.0037 18.2763 30 15.9998C30 13.6398 29.416 11.4158 28.386 9.46784C28.3245 9.35175 28.2865 9.2247 28.2741 9.09392C28.2618 8.96314 28.2753 8.8312 28.3139 8.70565C28.3525 8.5801 28.4155 8.46338 28.4993 8.36218C28.583 8.26098 28.6859 8.17727 28.802 8.11584ZM6.11402 11.0678C6.23645 11.1156 6.34828 11.187 6.44311 11.278C6.53793 11.369 6.61389 11.4777 6.66664 11.5981C6.71939 11.7185 6.7479 11.8481 6.75054 11.9794C6.75318 12.1108 6.72989 12.2415 6.68202 12.3638C6.22989 13.5227 5.99858 14.7559 6.00002 15.9998C6.00002 17.2838 6.24002 18.5098 6.68002 19.6358C6.73583 19.7594 6.76591 19.8931 6.76844 20.0287C6.77097 20.1643 6.74589 20.299 6.69474 20.4246C6.64358 20.5502 6.5674 20.6641 6.47085 20.7593C6.3743 20.8545 6.25938 20.9291 6.13309 20.9786C6.0068 21.028 5.87178 21.0512 5.73623 21.0468C5.60068 21.0424 5.46744 21.0105 5.34462 20.953C5.22179 20.8955 5.11195 20.8136 5.02176 20.7123C4.93158 20.6111 4.86294 20.4925 4.82002 20.3638C4.27695 18.973 3.99883 17.4929 4.00002 15.9998C4.00002 14.4618 4.29002 12.9898 4.82002 11.6358C4.91645 11.389 5.10688 11.1906 5.3495 11.0841C5.59212 10.9776 5.86708 10.9718 6.11402 11.0678ZM25.886 11.0678C26.0084 11.02 26.139 10.9967 26.2704 10.9993C26.4018 11.002 26.5314 11.0305 26.6517 11.0832C26.7721 11.136 26.8809 11.2119 26.9719 11.3067C27.0629 11.4016 27.1343 11.5134 27.182 11.6358C27.71 12.9898 28 14.4618 28 15.9998C28 17.5378 27.71 19.0098 27.18 20.3638C27.0745 20.5975 26.8833 20.7817 26.6458 20.8784C26.4084 20.9752 26.1429 20.977 25.9041 20.8835C25.6654 20.7901 25.4717 20.6085 25.363 20.3763C25.2542 20.1441 25.2389 19.879 25.32 19.6358C25.76 18.5098 26 17.2838 26 15.9998C26 14.7158 25.76 13.4898 25.32 12.3638C25.2232 12.1169 25.2285 11.8417 25.3346 11.5986C25.4408 11.3556 25.6391 11.1646 25.886 11.0678Z" fill="white"/>
</svg>
