<svg width="32" height="32" viewBox="0 0 32 32" fill="none" xmlns="http://www.w3.org/2000/svg">
<path d="M23.4858 20.6882C25.4224 18.0456 26.2898 14.7692 25.9144 11.5145C25.539 8.25982 23.9486 5.26688 21.4613 3.13446C18.974 1.00204 15.7733 -0.112592 12.4995 0.0135544C9.22564 0.139701 6.12016 1.49733 3.80433 3.81482C1.4885 6.13231 0.133097 9.23875 0.00929307 12.5127C-0.114511 15.7866 1.00241 18.9865 3.13661 21.4723C5.27081 23.9581 8.26488 25.5463 11.5198 25.9194C14.7748 26.2924 18.0506 25.4227 20.6918 23.4842H20.6898C20.7498 23.5642 20.8138 23.6402 20.8858 23.7142L28.5858 31.4142C28.9608 31.7895 29.4695 32.0004 30.0001 32.0006C30.5306 32.0008 31.0395 31.7902 31.4148 31.4152C31.7901 31.0402 32.001 30.5314 32.0012 30.0009C32.0014 29.4704 31.7908 28.9615 31.4158 28.5862L23.7158 20.8862C23.6443 20.8138 23.5674 20.747 23.4858 20.6862V20.6882ZM24.0018 13.0002C24.0018 14.4447 23.7173 15.8751 23.1645 17.2097C22.6117 18.5443 21.8014 19.7569 20.78 20.7784C19.7585 21.7998 18.5459 22.6101 17.2113 23.1629C15.8767 23.7157 14.4463 24.0002 13.0018 24.0002C11.5573 24.0002 10.1269 23.7157 8.79228 23.1629C7.4577 22.6101 6.24507 21.7998 5.22362 20.7784C4.20218 19.7569 3.39192 18.5443 2.83912 17.2097C2.28632 15.8751 2.0018 14.4447 2.0018 13.0002C2.0018 10.0828 3.16072 7.28493 5.22362 5.22203C7.28652 3.15913 10.0844 2.0002 13.0018 2.0002C15.9192 2.0002 18.7171 3.15913 20.78 5.22203C22.8429 7.28493 24.0018 10.0828 24.0018 13.0002Z" fill="white"/>
</svg>
